<svg xmlns="http://www.w3.org/2000/svg" xmlns:xlink="http://www.w3.org/1999/xlink" width="229" zoomAndPan="magnify" viewBox="0 0 171.75 16.5" height="22" preserveAspectRatio="xMidYMid meet" version="1.0"><defs><clipPath id="2131731dd2"><path d="M 2.40625 0 L 10 0 L 10 15.285156 L 2.40625 15.285156 Z M 2.40625 0 " clip-rule="nonzero"/></clipPath><clipPath id="70fd7e6151"><path d="M 8 0 L 16 0 L 16 15.285156 L 8 15.285156 Z M 8 0 " clip-rule="nonzero"/></clipPath><clipPath id="2799c38aee"><path d="M 24 0 L 33 0 L 33 15.285156 L 24 15.285156 Z M 24 0 " clip-rule="nonzero"/></clipPath><clipPath id="c12da6d74e"><path d="M 19 0 L 27 0 L 27 15.285156 L 19 15.285156 Z M 19 0 " clip-rule="nonzero"/></clipPath><clipPath id="12040098a1"><path d="M 11 8 L 24 8 L 24 15.285156 L 11 15.285156 Z M 11 8 " clip-rule="nonzero"/></clipPath><clipPath id="b3f9c9c244"><path d="M 36 0 L 45 0 L 45 15.285156 L 36 15.285156 Z M 36 0 " clip-rule="nonzero"/></clipPath><clipPath id="a04c59278c"><path d="M 42 0 L 50 0 L 50 15.285156 L 42 15.285156 Z M 42 0 " clip-rule="nonzero"/></clipPath><clipPath id="c6f57a2ff4"><path d="M 59 0 L 67 0 L 67 15.285156 L 59 15.285156 Z M 59 0 " clip-rule="nonzero"/></clipPath><clipPath id="449ef59a17"><path d="M 53 0 L 61 0 L 61 15.285156 L 53 15.285156 Z M 53 0 " clip-rule="nonzero"/></clipPath><clipPath id="bb32d38754"><path d="M 45 9 L 58 9 L 58 15.285156 L 45 15.285156 Z M 45 9 " clip-rule="nonzero"/></clipPath><clipPath id="4a56d8875c"><path d="M 70 0 L 79 0 L 79 15.285156 L 70 15.285156 Z M 70 0 " clip-rule="nonzero"/></clipPath><clipPath id="71794653b2"><path d="M 76 0 L 85 0 L 85 15.285156 L 76 15.285156 Z M 76 0 " clip-rule="nonzero"/></clipPath><clipPath id="1d1218dcc9"><path d="M 93 0 L 101 0 L 101 15.285156 L 93 15.285156 Z M 93 0 " clip-rule="nonzero"/></clipPath><clipPath id="3f42a5035f"><path d="M 87 0 L 95 0 L 95 15.285156 L 87 15.285156 Z M 87 0 " clip-rule="nonzero"/></clipPath><clipPath id="a215a36f05"><path d="M 79 9 L 92 9 L 92 15.285156 L 79 15.285156 Z M 79 9 " clip-rule="nonzero"/></clipPath><clipPath id="3ed8b4c4f8"><path d="M 104 0 L 113 0 L 113 15.285156 L 104 15.285156 Z M 104 0 " clip-rule="nonzero"/></clipPath><clipPath id="ab8d934ac5"><path d="M 110 0 L 119 0 L 119 15.285156 L 110 15.285156 Z M 110 0 " clip-rule="nonzero"/></clipPath><clipPath id="b40390394e"><path d="M 127 0 L 135 0 L 135 15.285156 L 127 15.285156 Z M 127 0 " clip-rule="nonzero"/></clipPath><clipPath id="929edb780c"><path d="M 121 0 L 130 0 L 130 15.285156 L 121 15.285156 Z M 121 0 " clip-rule="nonzero"/></clipPath><clipPath id="69cfd75db4"><path d="M 113 9 L 126 9 L 126 15.285156 L 113 15.285156 Z M 113 9 " clip-rule="nonzero"/></clipPath><clipPath id="4f137b1646"><path d="M 138 0 L 147 0 L 147 15.285156 L 138 15.285156 Z M 138 0 " clip-rule="nonzero"/></clipPath><clipPath id="7489edb435"><path d="M 144 0 L 153 0 L 153 15.285156 L 144 15.285156 Z M 144 0 " clip-rule="nonzero"/></clipPath><clipPath id="bcf26f60b8"><path d="M 161 0 L 169.101562 0 L 169.101562 15.285156 L 161 15.285156 Z M 161 0 " clip-rule="nonzero"/></clipPath><clipPath id="38afdfcb15"><path d="M 155 0 L 164 0 L 164 15.285156 L 155 15.285156 Z M 155 0 " clip-rule="nonzero"/></clipPath><clipPath id="43f4f4a800"><path d="M 147 9 L 160 9 L 160 15.285156 L 147 15.285156 Z M 147 9 " clip-rule="nonzero"/></clipPath></defs><g clip-path="url(#2131731dd2)"><path fill="#e151af" d="M 2.40625 3.363281 L 2.40625 0.0195312 L 9.910156 7.679688 L 2.40625 15.082031 L 2.40625 12.167969 L 6.671875 7.960938 Z M 2.40625 3.363281 " fill-opacity="1" fill-rule="nonzero"/></g><g clip-path="url(#70fd7e6151)"><path fill="#e151af" d="M 8.265625 3.363281 L 8.265625 0.0195312 L 15.769531 7.679688 L 8.265625 15.082031 L 8.265625 12.167969 L 12.53125 7.960938 Z M 8.265625 3.363281 " fill-opacity="1" fill-rule="nonzero"/></g><g clip-path="url(#2799c38aee)"><path fill="#e151af" d="M 32.492188 3.363281 L 32.492188 0.0195312 L 24.988281 7.679688 L 32.492188 15.082031 L 32.492188 12.167969 L 28.226562 7.960938 Z M 32.492188 3.363281 " fill-opacity="1" fill-rule="nonzero"/></g><g clip-path="url(#c12da6d74e)"><path fill="#e151af" d="M 26.632812 3.363281 L 26.632812 0.0195312 L 19.128906 7.679688 L 26.632812 15.082031 L 26.632812 12.167969 L 22.367188 7.960938 Z M 26.632812 3.363281 " fill-opacity="1" fill-rule="nonzero"/></g><path fill="#e151af" d="M 11.210938 0.0195312 L 14.074219 0.0195312 L 16.875 2.976562 L 20.292969 0.0195312 L 23 0.0195312 L 16.953125 6.164062 Z M 11.210938 0.0195312 " fill-opacity="1" fill-rule="nonzero"/><g clip-path="url(#12040098a1)"><path fill="#e151af" d="M 11.25 15.082031 L 14.113281 15.082031 L 16.914062 12.125 L 20.332031 15.082031 L 23.039062 15.082031 L 16.992188 8.9375 Z M 11.25 15.082031 " fill-opacity="1" fill-rule="nonzero"/></g><g clip-path="url(#b3f9c9c244)"><path fill="#e151af" d="M 36.535156 3.4375 L 36.535156 0.0976562 L 44.042969 7.757812 L 36.535156 15.160156 L 36.535156 12.246094 L 40.804688 8.039062 Z M 36.535156 3.4375 " fill-opacity="1" fill-rule="nonzero"/></g><g clip-path="url(#a04c59278c)"><path fill="#e151af" d="M 42.398438 3.4375 L 42.398438 0.0976562 L 49.902344 7.757812 L 42.398438 15.160156 L 42.398438 12.246094 L 46.664062 8.039062 Z M 42.398438 3.4375 " fill-opacity="1" fill-rule="nonzero"/></g><g clip-path="url(#c6f57a2ff4)"><path fill="#e151af" d="M 66.625 3.4375 L 66.625 0.0976562 L 59.121094 7.757812 L 66.625 15.160156 L 66.625 12.246094 L 62.359375 8.039062 Z M 66.625 3.4375 " fill-opacity="1" fill-rule="nonzero"/></g><g clip-path="url(#449ef59a17)"><path fill="#e151af" d="M 60.765625 3.4375 L 60.765625 0.0976562 L 53.261719 7.757812 L 60.765625 15.160156 L 60.765625 12.246094 L 56.5 8.039062 Z M 60.765625 3.4375 " fill-opacity="1" fill-rule="nonzero"/></g><path fill="#e151af" d="M 45.34375 0.0976562 L 48.207031 0.0976562 L 51.007812 3.054688 L 54.425781 0.0976562 L 57.132812 0.0976562 L 51.082031 6.242188 Z M 45.34375 0.0976562 " fill-opacity="1" fill-rule="nonzero"/><g clip-path="url(#bb32d38754)"><path fill="#e151af" d="M 45.382812 15.160156 L 48.246094 15.160156 L 51.046875 12.203125 L 54.464844 15.160156 L 57.171875 15.160156 L 51.125 9.015625 Z M 45.382812 15.160156 " fill-opacity="1" fill-rule="nonzero"/></g><path fill="#e151af" d="M 36.539062 7.628906 C 36.539062 7.90625 36.484375 8.171875 36.378906 8.429688 C 36.273438 8.6875 36.121094 8.910156 35.925781 9.109375 C 35.730469 9.304688 35.503906 9.453125 35.246094 9.5625 C 34.992188 9.667969 34.722656 9.71875 34.445312 9.71875 C 34.167969 9.71875 33.902344 9.667969 33.648438 9.5625 C 33.390625 9.453125 33.164062 9.304688 32.96875 9.109375 C 32.773438 8.910156 32.621094 8.6875 32.515625 8.429688 C 32.410156 8.171875 32.355469 7.90625 32.355469 7.628906 C 32.355469 7.351562 32.410156 7.085938 32.515625 6.828125 C 32.621094 6.574219 32.773438 6.347656 32.96875 6.152344 C 33.164062 5.953125 33.390625 5.804688 33.648438 5.699219 C 33.902344 5.589844 34.167969 5.539062 34.445312 5.539062 C 34.722656 5.539062 34.992188 5.589844 35.246094 5.699219 C 35.503906 5.804688 35.730469 5.953125 35.925781 6.152344 C 36.121094 6.347656 36.273438 6.574219 36.378906 6.828125 C 36.484375 7.085938 36.539062 7.351562 36.539062 7.628906 Z M 36.539062 7.628906 " fill-opacity="1" fill-rule="nonzero"/><g clip-path="url(#4a56d8875c)"><path fill="#e151af" d="M 70.667969 3.515625 L 70.667969 0.175781 L 78.175781 7.835938 L 70.667969 15.238281 L 70.667969 12.324219 L 74.933594 8.117188 Z M 70.667969 3.515625 " fill-opacity="1" fill-rule="nonzero"/></g><g clip-path="url(#71794653b2)"><path fill="#e151af" d="M 76.53125 3.515625 L 76.53125 0.175781 L 84.035156 7.835938 L 76.53125 15.238281 L 76.53125 12.324219 L 80.796875 8.117188 Z M 76.53125 3.515625 " fill-opacity="1" fill-rule="nonzero"/></g><g clip-path="url(#1d1218dcc9)"><path fill="#e151af" d="M 100.757812 3.515625 L 100.757812 0.175781 L 93.253906 7.835938 L 100.757812 15.238281 L 100.757812 12.324219 L 96.492188 8.117188 Z M 100.757812 3.515625 " fill-opacity="1" fill-rule="nonzero"/></g><g clip-path="url(#3f42a5035f)"><path fill="#e151af" d="M 94.898438 3.515625 L 94.898438 0.175781 L 87.394531 7.835938 L 94.898438 15.238281 L 94.898438 12.324219 L 90.628906 8.117188 Z M 94.898438 3.515625 " fill-opacity="1" fill-rule="nonzero"/></g><path fill="#e151af" d="M 79.476562 0.175781 L 82.339844 0.175781 L 85.140625 3.128906 L 88.558594 0.175781 L 91.265625 0.175781 L 85.21875 6.316406 Z M 79.476562 0.175781 " fill-opacity="1" fill-rule="nonzero"/><g clip-path="url(#a215a36f05)"><path fill="#e151af" d="M 79.515625 15.238281 L 82.378906 15.238281 L 85.179688 12.28125 L 88.597656 15.238281 L 91.304688 15.238281 L 85.257812 9.09375 Z M 79.515625 15.238281 " fill-opacity="1" fill-rule="nonzero"/></g><path fill="#e151af" d="M 70.667969 7.707031 C 70.667969 7.984375 70.617188 8.25 70.511719 8.507812 C 70.40625 8.761719 70.253906 8.988281 70.058594 9.183594 C 69.859375 9.378906 69.636719 9.53125 69.378906 9.636719 C 69.121094 9.742188 68.855469 9.796875 68.578125 9.796875 C 68.300781 9.796875 68.035156 9.742188 67.777344 9.636719 C 67.523438 9.53125 67.296875 9.378906 67.101562 9.183594 C 66.902344 8.988281 66.753906 8.761719 66.648438 8.507812 C 66.539062 8.25 66.488281 7.984375 66.488281 7.707031 C 66.488281 7.429688 66.539062 7.160156 66.648438 6.90625 C 66.753906 6.648438 66.902344 6.421875 67.101562 6.226562 C 67.296875 6.03125 67.523438 5.878906 67.777344 5.773438 C 68.035156 5.667969 68.300781 5.613281 68.578125 5.613281 C 68.855469 5.613281 69.121094 5.667969 69.378906 5.773438 C 69.636719 5.878906 69.859375 6.03125 70.058594 6.226562 C 70.253906 6.421875 70.40625 6.648438 70.511719 6.90625 C 70.617188 7.160156 70.667969 7.429688 70.667969 7.707031 Z M 70.667969 7.707031 " fill-opacity="1" fill-rule="nonzero"/><g clip-path="url(#3ed8b4c4f8)"><path fill="#e151af" d="M 104.800781 3.59375 L 104.800781 0.25 L 112.308594 7.910156 L 104.800781 15.3125 L 104.800781 12.402344 L 109.070312 8.195312 Z M 104.800781 3.59375 " fill-opacity="1" fill-rule="nonzero"/></g><g clip-path="url(#ab8d934ac5)"><path fill="#e151af" d="M 110.660156 3.59375 L 110.660156 0.25 L 118.167969 7.910156 L 110.660156 15.3125 L 110.660156 12.402344 L 114.929688 8.195312 Z M 110.660156 3.59375 " fill-opacity="1" fill-rule="nonzero"/></g><g clip-path="url(#b40390394e)"><path fill="#e151af" d="M 134.890625 3.59375 L 134.890625 0.25 L 127.386719 7.910156 L 134.890625 15.3125 L 134.890625 12.402344 L 130.625 8.195312 Z M 134.890625 3.59375 " fill-opacity="1" fill-rule="nonzero"/></g><g clip-path="url(#929edb780c)"><path fill="#e151af" d="M 129.03125 3.59375 L 129.03125 0.25 L 121.523438 7.910156 L 129.03125 15.3125 L 129.03125 12.402344 L 124.765625 8.195312 Z M 129.03125 3.59375 " fill-opacity="1" fill-rule="nonzero"/></g><path fill="#e151af" d="M 113.609375 0.25 L 116.472656 0.25 L 119.273438 3.207031 L 122.691406 0.25 L 125.398438 0.25 L 119.347656 6.394531 Z M 113.609375 0.25 " fill-opacity="1" fill-rule="nonzero"/><g clip-path="url(#69cfd75db4)"><path fill="#e151af" d="M 113.648438 15.3125 L 116.511719 15.3125 L 119.3125 12.359375 L 122.730469 15.3125 L 125.4375 15.3125 L 119.390625 9.171875 Z M 113.648438 15.3125 " fill-opacity="1" fill-rule="nonzero"/></g><path fill="#e151af" d="M 104.804688 7.78125 C 104.804688 8.058594 104.75 8.328125 104.644531 8.582031 C 104.539062 8.839844 104.386719 9.066406 104.191406 9.261719 C 103.996094 9.457031 103.769531 9.609375 103.511719 9.714844 C 103.257812 9.820312 102.988281 9.875 102.710938 9.875 C 102.433594 9.875 102.167969 9.820312 101.910156 9.714844 C 101.65625 9.609375 101.429688 9.457031 101.234375 9.261719 C 101.039062 9.066406 100.886719 8.839844 100.78125 8.582031 C 100.675781 8.328125 100.621094 8.058594 100.621094 7.78125 C 100.621094 7.503906 100.675781 7.238281 100.78125 6.980469 C 100.886719 6.726562 101.039062 6.5 101.234375 6.304688 C 101.429688 6.109375 101.65625 5.957031 101.910156 5.851562 C 102.167969 5.746094 102.433594 5.691406 102.710938 5.691406 C 102.988281 5.691406 103.257812 5.746094 103.511719 5.851562 C 103.769531 5.957031 103.996094 6.109375 104.191406 6.304688 C 104.386719 6.5 104.539062 6.726562 104.644531 6.980469 C 104.75 7.238281 104.804688 7.503906 104.804688 7.78125 Z M 104.804688 7.78125 " fill-opacity="1" fill-rule="nonzero"/><g clip-path="url(#4f137b1646)"><path fill="#e151af" d="M 138.933594 3.671875 L 138.933594 0.328125 L 146.441406 7.988281 L 138.933594 15.390625 L 138.933594 12.476562 L 143.199219 8.269531 Z M 138.933594 3.671875 " fill-opacity="1" fill-rule="nonzero"/></g><g clip-path="url(#7489edb435)"><path fill="#e151af" d="M 144.796875 3.671875 L 144.796875 0.328125 L 152.300781 7.988281 L 144.796875 15.390625 L 144.796875 12.476562 L 149.0625 8.269531 Z M 144.796875 3.671875 " fill-opacity="1" fill-rule="nonzero"/></g><g clip-path="url(#bcf26f60b8)"><path fill="#e151af" d="M 169.023438 3.671875 L 169.023438 0.328125 L 161.519531 7.988281 L 169.023438 15.390625 L 169.023438 12.476562 L 164.757812 8.269531 Z M 169.023438 3.671875 " fill-opacity="1" fill-rule="nonzero"/></g><g clip-path="url(#38afdfcb15)"><path fill="#e151af" d="M 163.164062 3.671875 L 163.164062 0.328125 L 155.660156 7.988281 L 163.164062 15.390625 L 163.164062 12.476562 L 158.894531 8.269531 Z M 163.164062 3.671875 " fill-opacity="1" fill-rule="nonzero"/></g><path fill="#e151af" d="M 147.742188 0.328125 L 150.605469 0.328125 L 153.40625 3.285156 L 156.824219 0.328125 L 159.53125 0.328125 L 153.484375 6.472656 Z M 147.742188 0.328125 " fill-opacity="1" fill-rule="nonzero"/><g clip-path="url(#43f4f4a800)"><path fill="#e151af" d="M 147.78125 15.390625 L 150.644531 15.390625 L 153.445312 12.433594 L 156.863281 15.390625 L 159.570312 15.390625 L 153.523438 9.246094 Z M 147.78125 15.390625 " fill-opacity="1" fill-rule="nonzero"/></g><path fill="#e151af" d="M 138.933594 7.859375 C 138.933594 8.136719 138.882812 8.40625 138.777344 8.660156 C 138.671875 8.917969 138.519531 9.144531 138.324219 9.339844 C 138.125 9.535156 137.902344 9.6875 137.644531 9.792969 C 137.386719 9.898438 137.121094 9.953125 136.84375 9.953125 C 136.566406 9.953125 136.300781 9.898438 136.042969 9.792969 C 135.789062 9.6875 135.5625 9.535156 135.367188 9.339844 C 135.167969 9.144531 135.019531 8.917969 134.914062 8.660156 C 134.804688 8.40625 134.753906 8.136719 134.753906 7.859375 C 134.753906 7.582031 134.804688 7.316406 134.914062 7.0625 C 135.019531 6.804688 135.167969 6.578125 135.367188 6.382812 C 135.5625 6.1875 135.789062 6.035156 136.042969 5.929688 C 136.300781 5.824219 136.566406 5.769531 136.84375 5.769531 C 137.121094 5.769531 137.386719 5.824219 137.644531 5.929688 C 137.902344 6.035156 138.125 6.1875 138.324219 6.382812 C 138.519531 6.578125 138.671875 6.804688 138.777344 7.0625 C 138.882812 7.316406 138.933594 7.582031 138.933594 7.859375 Z M 138.933594 7.859375 " fill-opacity="1" fill-rule="nonzero"/></svg>